<?xml version="1.0" encoding="utf-8"?>
<!-- Generator: Adobe Illustrator 18.0.0, SVG Export Plug-In . SVG Version: 6.00 Build 0)  -->
<!DOCTYPE svg PUBLIC "-//W3C//DTD SVG 1.1//EN" "http://www.w3.org/Graphics/SVG/1.1/DTD/svg11.dtd">
<svg version="1.1" id="Layer_1" xmlns="http://www.w3.org/2000/svg" xmlns:xlink="http://www.w3.org/1999/xlink" x="0px" y="0px"
	 viewBox="0 0 595.3 841.9" enable-background="new 0 0 595.3 841.9" xml:space="preserve">
<polygon id="Delta" fill="#D6D4B5" points="212.6,103.3 129.7,315.1 129.7,473.4 241.3,607.1 354.9,607.1 466.5,473.4 466.5,315.1 
	383.6,103.3 549.8,315.1 549.8,529.1 383.6,740.8 212.6,740.8 46.4,529.1 46.4,315.1 "/>
<path id="Charlie" fill="#D6D4B5" stroke="#77766A" stroke-miterlimit="10" d="M383.6,103.3h-85.5h0h0h-85.5l-82.9,211.7v158.3
	l111.7,133.7h56.8h0h0h56.8l111.7-133.7V315.1L383.6,103.3z M381.8,410.7l-55.6,84h-28h0h0h-28l-55.6-84v-99l55.6-180.4h28h0h0h28
	l55.6,180.4V410.7z"/>
<polygon id="Alpha" fill="#D6D4B5" stroke="#77766A" stroke-miterlimit="10" points="326.1,131.4 298.1,131.4 298.1,131.4 
	298.1,131.4 270.1,131.4 214.5,311.7 214.5,410.7 270.1,494.7 298.1,494.7 298.1,494.7 298.1,494.7 326.1,494.7 381.8,410.7 
	381.8,311.7 "/>
<path id="Non_scoring_border" fill="#D6D4B5" stroke="#77766A" stroke-miterlimit="10" d="M386.3,93.3h-88.2h0h0h-88.2L38.4,311.7
	v220.8l171.4,218.4h88.2h0h0h88.2l171.4-218.4V311.7L386.3,93.3z M549.8,529.1L383.6,740.8h-85.5h0h0h-85.5L46.4,529.1v-214
	l166.2-211.7h85.5h0h0h85.5l166.2,211.7V529.1z"/>
</svg>
